# xmcd CD database file
#
# Track frame offsets:
#	150
#	24220
#	41627
#	61138
#	76297
#	94971
#	113185
#	131174
#	147478
#	171238
#	187016
#	208063
#	225079
#	250543
#
# Disc length: 3580 seconds
#
# Revision: 0
# Processed by: cddbd v1.4PL0 Copyright (c) Steve Scherf et al.
# Submitted via: Feurio! 1.65 - http://www.feurio.com
#
DISCID=ba0dfa0e
DTITLE=The Rocky Athas Group - Miracle
DYEAR=2003
DGENRE=
TTITLE0=Miracle
TTITLE1=You Move Me
TTITLE2=No More
TTITLE3=Long Run
TTITLE4=Bluesville
TTITLE5=That Was Then, This Is Now
TTITLE6=High Cost Of Loving
TTITLE7=One Heartbeat
TTITLE8=Slow Driver
TTITLE9=Real Bad Feeling
TTITLE10=I Wish I Could Be That Strong
TTITLE11=I Love You
TTITLE12=That Magic
TTITLE13=Long Time Gone
EXTD=Armadillo Music Ltd
EXTT0=
EXTT1=
EXTT2=
EXTT3=
EXTT4=
EXTT5=
EXTT6=
EXTT7=
EXTT8=
EXTT9=
EXTT10=
EXTT11=
EXTT12=
EXTT13=
PLAYORDER=
